<mxfile host="app.diagrams.net" agent="Mozilla/5.0 (Windows NT 10.0; Win64; x64) AppleWebKit/537.36 (KHTML, like Gecko) Chrome/134.0.0.0 Safari/537.36" version="26.1.1">
  <diagram name="第 1 页" id="fMHlD-r7Lz2XOTlPfh5B">
    <mxGraphModel dx="965" dy="470" grid="1" gridSize="10" guides="1" tooltips="1" connect="1" arrows="1" fold="1" page="1" pageScale="1" pageWidth="827" pageHeight="1169" math="0" shadow="0">
      <root>
        <mxCell id="0" />
        <mxCell id="1" parent="0" />
        <mxCell id="R3ej2hB7N3UgfQrnUmJE-1" value="RGB图像检测" style="rounded=0;whiteSpace=wrap;html=1;" vertex="1" parent="1">
          <mxGeometry x="350" y="320" width="80" height="30" as="geometry" />
        </mxCell>
        <mxCell id="R3ej2hB7N3UgfQrnUmJE-2" value="RGB与IR图像检测" style="rounded=0;whiteSpace=wrap;html=1;" vertex="1" parent="1">
          <mxGeometry x="470" y="320" width="110" height="30" as="geometry" />
        </mxCell>
        <mxCell id="R3ej2hB7N3UgfQrnUmJE-3" value="模型选择" style="rounded=0;whiteSpace=wrap;html=1;" vertex="1" parent="1">
          <mxGeometry x="340" y="390" width="250" height="20" as="geometry" />
        </mxCell>
        <mxCell id="R3ej2hB7N3UgfQrnUmJE-4" value="权重文件选择" style="rounded=0;whiteSpace=wrap;html=1;" vertex="1" parent="1">
          <mxGeometry x="340" y="440" width="250" height="20" as="geometry" />
        </mxCell>
        <mxCell id="R3ej2hB7N3UgfQrnUmJE-5" value="IOU的值：" style="rounded=0;whiteSpace=wrap;html=1;" vertex="1" parent="1">
          <mxGeometry x="340" y="490" width="90" height="20" as="geometry" />
        </mxCell>
        <mxCell id="R3ej2hB7N3UgfQrnUmJE-6" value="置信度的值：" style="rounded=0;whiteSpace=wrap;html=1;" vertex="1" parent="1">
          <mxGeometry x="500" y="490" width="90" height="20" as="geometry" />
        </mxCell>
        <mxCell id="R3ej2hB7N3UgfQrnUmJE-7" value="输出的视频质量" style="rounded=0;whiteSpace=wrap;html=1;" vertex="1" parent="1">
          <mxGeometry x="340" y="550" width="250" height="20" as="geometry" />
        </mxCell>
        <mxCell id="R3ej2hB7N3UgfQrnUmJE-8" value="RGB视频上传" style="rounded=0;whiteSpace=wrap;html=1;" vertex="1" parent="1">
          <mxGeometry x="310" y="600" width="160" height="50" as="geometry" />
        </mxCell>
        <mxCell id="R3ej2hB7N3UgfQrnUmJE-9" value="IR视频上传" style="rounded=0;whiteSpace=wrap;html=1;" vertex="1" parent="1">
          <mxGeometry x="490" y="600" width="160" height="50" as="geometry" />
        </mxCell>
      </root>
    </mxGraphModel>
  </diagram>
</mxfile>
